<?xml version="1.0" encoding="UTF-8"?>
<svg width="256px" height="204px" viewBox="0 0 256 204" version="1.1" xmlns="http://www.w3.org/2000/svg" xmlns:xlink="http://www.w3.org/1999/xlink">
    <!-- Generator: Sketch 64 (93537) - https://sketch.com -->
    <title>truck-git</title>
    <desc>Created with Sketch.</desc>
    <g id="truck-git" stroke="none" stroke-width="1" fill="none" fill-rule="evenodd">
        <g id="truck" transform="translate(4.000000, 6.000000)" fill-rule="nonzero">
            <g id="Group">
                <g transform="translate(1.937500, 2.421875)">
                    <g transform="translate(169.531250, 62.968750)" id="Path">
                        <path d="M65.2453125,100.410938 L0.2421875,100.410938 L0.2421875,0.1453125 L43.884375,0.1453125 C50.56875,0.1453125 56.671875,3.971875 59.675,9.978125 L72.559375,36.0859375 C73.7703125,38.5078125 74.3515625,41.171875 74.3515625,43.8359375 L74.3515625,91.353125 C74.303125,96.3421875 70.2828125,100.410938 65.2453125,100.410938 Z" fill="#48B1DD"></path>
                        <path d="M14.1921875,50.4234375 L14.1921875,18.115625 C14.1921875,15.8875 15.984375,14.046875 18.2609375,14.046875 L43.884375,14.046875 C45.2890625,14.046875 46.5,14.821875 47.1296875,16.08125 L59.48125,41.1234375 C60.0625,42.334375 60.4015625,43.690625 60.4015625,44.9984375 L60.4015625,51.246875 C60.4015625,53.0390625 58.9484375,54.4921875 57.15625,54.4921875 L18.309375,54.4921875 C16.0328125,54.4921875 14.1921875,52.6515625 14.1921875,50.4234375 Z" fill="#DEF6FC"></path>
                    </g>
                    <g>
                        <g>
                            <g id="Path">
                                <path d="M0.290625,138.725 L0.290625,156.453125 C0.290625,160.279687 3.390625,163.33125 7.16875,163.33125 L169.773438,163.33125 L169.773438,138.725 L0.290625,138.725 Z" fill="#4391B2"></path>
                                <path d="M169.967187,138.773438 L0.484375,138.773438 L0.484375,10.8015625 C0.484375,4.84375 5.328125,0 11.2859375,0 L159.214062,0 C165.171875,0 170.015625,4.84375 170.015625,10.8015625 L170.015625,138.773438 L169.967187,138.773438 Z" fill="#F8991D"></path>
                            </g>
                            <g transform="translate(12.109375, 138.531250)" id="Oval">
                                <circle fill="#43527A" cx="24.9453125" cy="24.8484375" r="24.60625"></circle>
                                <circle fill="#7782BB" cx="24.9453125" cy="24.8484375" r="10.1234375"></circle>
                            </g>
                            <g transform="translate(178.250000, 138.531250)" id="Oval">
                                <circle fill="#43527A" cx="24.9453125" cy="24.8484375" r="24.60625"></circle>
                                <circle fill="#7782BB" cx="24.9453125" cy="24.8484375" r="10.1234375"></circle>
                            </g>
                        </g>
                    </g>
                </g>
                <g fill="#133260" id="Shape">
                    <path d="M38.9921875,153.45 C32.2109375,153.45 26.6890625,158.971875 26.6890625,165.753125 C26.6890625,172.534375 32.2109375,178.05625 38.9921875,178.05625 C45.7734375,178.05625 51.2953125,172.534375 51.2953125,165.753125 C51.2953125,158.971875 45.7734375,153.45 38.9921875,153.45 Z M38.9921875,173.696875 C34.6328125,173.696875 31.096875,170.160938 31.096875,165.801563 C31.096875,161.442188 34.6328125,157.90625 38.9921875,157.90625 C43.3515625,157.90625 46.8875,161.442188 46.8875,165.801563 C46.8875,170.160938 43.3515625,173.696875 38.9921875,173.696875 Z"></path>
                    <path d="M220.584375,80.503125 C219.615625,78.5171875 217.58125,77.2578125 215.353125,77.2578125 L189.729688,77.2578125 C186.290625,77.2578125 183.48125,80.0671875 183.48125,83.50625 L183.48125,115.814063 C183.48125,119.253125 186.290625,122.0625 189.729688,122.0625 L228.576562,122.0625 C231.579687,122.0625 234.001562,119.640625 234.001562,116.6375 L234.001562,110.389063 C234.001562,108.69375 233.614062,107.046875 232.8875,105.496875 L220.584375,80.503125 Z M229.642188,116.6375 C229.642188,117.21875 229.20625,117.654688 228.625,117.654688 L189.778125,117.654688 C188.760938,117.654688 187.9375,116.83125 187.9375,115.814063 L187.9375,83.50625 C187.9375,82.4890625 188.760938,81.665625 189.778125,81.665625 L215.401563,81.665625 C215.934375,81.665625 216.41875,81.95625 216.660938,82.440625 L229.0125,107.482813 C229.448438,108.403125 229.690625,109.420313 229.690625,110.389063 L229.690625,116.6375 L229.642188,116.6375 Z"></path>
                    <path d="M205.132812,153.45 C198.351562,153.45 192.829688,158.971875 192.829688,165.753125 C192.829688,172.534375 198.351562,178.05625 205.132812,178.05625 C211.914062,178.05625 217.435937,172.534375 217.435937,165.753125 C217.484375,158.971875 211.914062,153.45 205.132812,153.45 Z M205.132812,173.696875 C200.773438,173.696875 197.2375,170.160938 197.2375,165.801563 C197.2375,161.442188 200.773438,157.90625 205.132812,157.90625 C209.492188,157.90625 213.028125,161.442188 213.028125,165.801563 C213.028125,170.160938 209.492188,173.696875 205.132812,173.696875 Z"></path>
                    <path d="M245.965625,100.459375 L233.08125,74.3515625 C229.739063,67.521875 222.909375,63.3078125 215.353125,63.3078125 L173.939062,63.3078125 L173.939062,13.175 C173.939062,6.00625 168.126563,0.19375 160.957812,0.19375 L12.98125,0.19375 C5.8125,0.19375 0,6.00625 0,13.175 L0,158.875 C0,163.9125 4.06875,167.98125 9.10625,167.98125 L12.2546875,167.98125 C13.36875,181.7375 24.9453125,192.5875 38.9921875,192.5875 C53.0390625,192.5875 64.615625,181.7375 65.7296875,167.98125 L178.395312,167.98125 C179.509375,181.7375 191.085937,192.5875 205.132812,192.5875 C219.179687,192.5875 230.75625,181.7375 231.870312,167.98125 L236.714062,167.98125 C242.914062,167.98125 248,162.94375 248,156.695312 L248,109.178125 C248,106.175 247.273438,103.171875 245.965625,100.459375 Z M9.10625,163.573437 C6.5390625,163.573437 4.4078125,161.490625 4.4078125,158.875 L4.4078125,143.375 L24.2671875,143.375 C17.5828125,147.782813 12.9328125,155.145312 12.2546875,163.573437 L9.10625,163.573437 Z M38.9921875,188.179688 C26.640625,188.179688 16.565625,178.104687 16.565625,165.753125 C16.565625,153.401562 26.640625,143.326562 38.9921875,143.326562 C51.34375,143.326562 61.41875,153.401562 61.41875,165.753125 C61.41875,178.153125 51.34375,188.179688 38.9921875,188.179688 Z M169.53125,163.573437 L65.7296875,163.573437 C65.0515625,155.145312 60.45,147.782812 53.7171875,143.375 L169.482812,143.375 L169.482812,163.573437 L169.53125,163.573437 Z M169.53125,138.967187 L4.4078125,138.967187 L4.4078125,13.175 C4.4078125,8.428125 8.2828125,4.6015625 12.98125,4.6015625 L58.221875,4.6015625 L108.5,4.6015625 L160.860938,4.6015625 C165.607813,4.6015625 169.434375,8.4765625 169.434375,13.175 L169.434375,138.967187 L169.53125,138.967187 Z M205.132812,188.179688 C192.78125,188.179688 182.70625,178.104687 182.70625,165.753125 C182.70625,153.401562 192.78125,143.326562 205.132812,143.326562 C217.484375,143.326562 227.559375,153.401562 227.559375,165.753125 C227.559375,178.153125 217.484375,188.179688 205.132812,188.179688 Z M243.592187,156.74375 C243.592187,160.521875 240.540625,163.573438 236.7625,163.573438 L231.91875,163.573438 C230.804687,149.817188 219.228125,138.967188 205.18125,138.967188 C191.134375,138.967188 179.557812,149.817188 178.44375,163.573438 L173.939062,163.573438 L173.939062,67.715625 L215.353125,67.715625 C221.2625,67.715625 226.542187,71.009375 229.157812,76.2890625 L242.042188,102.396875 C243.059375,104.479688 243.640625,106.853125 243.640625,109.178125 L243.640625,156.74375 L243.592187,156.74375 Z"></path>
                </g>
            </g>
        </g>
        <path d="M130.435115,74.8031755 L94.1943357,38.5653848 C92.109134,36.4782051 88.7243785,36.4782051 86.636554,38.5653848 L79.1115563,46.0914133 L88.6567708,55.637011 C90.8758037,54.8877596 93.4192514,55.3901165 95.1872507,57.1585365 C96.9644295,58.9379723 97.4631819,61.5032333 96.6951644,63.7297866 L105.895055,72.9300468 C108.12079,72.1630185 110.68879,72.6585706 112.466041,74.439041 C114.95077,76.9231404 114.95077,80.9483635 112.466041,83.4331186 C109.980949,85.9186751 105.955887,85.9186751 103.469411,83.4331186 C101.601093,81.5632684 101.138986,78.818053 102.085275,76.5160209 L93.5053638,67.9357656 L93.5046353,90.5145795 C94.1104089,90.8144696 94.6820872,91.214726 95.1868864,91.7173598 C97.6708861,94.2011678 97.6708861,98.2256624 95.1868864,100.713623 C92.7021583,103.197358 88.6752755,103.197358 86.19317,100.713623 C83.7088061,98.2258809 83.7088061,94.2013864 86.19317,91.7173598 C86.8071396,91.1044584 87.5175667,90.6405476 88.2756033,90.3295981 L88.2756033,67.5409587 C87.5172024,67.2313205 86.8076131,66.7708704 86.1927329,66.1530512 C84.3109371,64.2726369 83.8577179,61.5106646 84.822803,59.199744 L75.4130953,49.7882014 L50.5658137,74.6357523 C48.4780621,76.7245348 48.4780621,80.1094263 50.5658137,82.1967517 L86.8044076,118.434615 C88.890775,120.521795 92.2743648,120.521795 94.3636463,118.434615 L130.434678,82.3679634 C132.521774,80.2797637 132.521774,76.8938523 130.434678,74.8062354" id="Path" fill="#133260" fill-rule="nonzero"></path>
    </g>
</svg>